<?xml version="1.0" standalone="no"?><!DOCTYPE svg PUBLIC "-//W3C//DTD SVG 1.1//EN" "http://www.w3.org/Graphics/SVG/1.1/DTD/svg11.dtd"><svg t="1655022626007" class="icon" viewBox="0 0 1024 1024" version="1.1" xmlns="http://www.w3.org/2000/svg" p-id="1287" xmlns:xlink="http://www.w3.org/1999/xlink" width="200" height="200"><defs><style type="text/css">@font-face { font-family: feedback-iconfont; src: url("//at.alicdn.com/t/font_1031158_u69w8yhxdu.woff2?t=1630033759944") format("woff2"), url("//at.alicdn.com/t/font_1031158_u69w8yhxdu.woff?t=1630033759944") format("woff"), url("//at.alicdn.com/t/font_1031158_u69w8yhxdu.ttf?t=1630033759944") format("truetype"); }
</style></defs><path d="M512.296759 860.626096c-218.541365 0-407.161257-162.340365-439.58676-377.965308-2.570545-9.902534-3.822049-19.145036-3.822049-28.17469l0.527003-6.788613c2.537799-60.401672 53.284577-109.138676 115.400287-109.138676 15.553231 0 30.711466 3.048429 44.980447 9.078773l3.2623 1.565658c15.355733 7.726985 31.931247 15.174608 48.670489 21.86396 147.100266 58.70503 313.707818 58.902528 461.137589 0.296759 10.80816-4.299933 21.452591-8.863878 31.931247-13.724583l14.235213-6.886851c15.751752-7.596002 32.655747-11.450796 50.252521-11.450796 63.136969 0 115.070782 51.389414 115.828029 114.559129-0.065492 2.50403-0.659009 12.241812-2.735297 25.686009C921.467789 696.621834 732.25438 860.626096 512.296759 860.626096zM184.814216 406.045853c-25.868157 0-46.990221 20.364817-48.110741 46.38033l-0.494257 4.89345c0.164752 0.75827 0.791016 4.712325 2.14178 9.605775l0.823761 4.036943c26.790156 183.677323 187.203636 322.1767 373.121999 322.1767 186.577373 0 347.056344-139.092895 373.319497-323.528488 1.548262-9.918907 2.043542-16.905018 2.076288-17.497513-0.36225-23.857361-22.045085-45.326325-48.4075-45.326325-6.623861 0-12.983709 1.301645-18.980283 3.855818l-1.680269 0.823761c-16.575514 8.204869-33.512255 15.734356-50.846038 22.605857-163.345252 64.965617-348.044858 64.768119-511.060605-0.329505-18.387789-7.331989-36.609803-15.520485-54.141084-24.351618C196.907649 407.166373 190.942797 406.045853 184.814216 406.045853z" p-id="1288"></path><path d="M512.691755 356.535229c-67.651796 0-135.006833-10.281157-200.153576-30.546713l-12.455683-3.888564c-20.496823-10.396791-31.667234-28.668946-31.667234-48.737004 0-3.707438 0.428765-7.496741 1.318018-11.550057 3.196809-8.255011 5.568832-13.345959 8.106632-18.337647 45.277206-88.87312 135.105071-144.06821 234.456846-144.06821 101.658308 0 195.243753 59.57791 238.411925 151.796218l0.791016 1.845021c2.636037 6.491855 3.986801 13.296841 3.986801 20.216437 0 21.633716-12.851703 41.075511-32.787754 49.544393-3.327792 1.433652-6.821359 2.520403-10.413164 3.229554C648.555096 346.122065 580.805062 356.535229 512.691755 356.535229zM302.092269 271.467785c0.164752 0 0.065492 0.988514 0.065492 1.895163 0 7.413853 4.218068 14.21884 10.972912 17.72878l9.457396 2.685155c124.19765 38.604226 257.359462 38.504966 381.359614-0.378623 3.032056-0.708128 4.316306-1.104147 5.536087-1.63115 7.447623-3.163039 12.258185-10.429537 12.258185-18.502399 0-2.487657-0.494257-4.958942-1.417279-7.331989l-0.394996-0.906649c-37.433564-79.926354-119.024837-131.87654-207.633944-131.87654-86.566588 0-164.894538 48.127114-204.371644 125.614929-2.174526 4.333702-4.28356 8.765641-6.195096 13.263072C301.894771 271.632537 301.993009 271.467785 302.092269 271.467785z" p-id="1289"></path></svg>